# xmcd CD database file
#
# Track frame offsets:
#	150
#	27199
#	40271
#	55121
#	67793
#	83958
#	95862
#	117744
#
# Disc length: 1845 seconds
#
# Revision: 1
# Processed by: cddbd v1.5.2PL0 Copyright (c) Steve Scherf et al.
# Submitted via: CDex 1.75
#
DISCID=68073308
DTITLE=Sting - The Last Ship - Disc Two
DYEAR=2013
DGENRE=Blues
TTITLE0=Shipyard - featuring Jimmy Nail, Brian Johnson and Jo Lawry
TTITLE1=It's Not The Same Moon
TTITLE2=Hadaway
TTITLE3=Jock The Singing Welder
TTITLE4=Sky Hooks And Tartan Paint - featuring Brian Johnson
TTITLE5=Peggy's Song - featuring Rachel Unthank
TTITLE6=Show Some Respect
TTITLE7=Practical Arrangement - Full original duet, featuring Jo Lawry
EXTD=YEAR: 2013
EXTT0=
EXTT1=
EXTT2=
EXTT3=
EXTT4=
EXTT5=
EXTT6=
EXTT7=
PLAYORDER=
